<svg xmlns="http://www.w3.org/2000/svg" viewBox="0 0 181.18 181.18"><defs><style>.cls-1{fill:#374556;}.cls-2,.cls-3{fill:#fff;}.cls-3{font-size:51.61px;font-family:a_PlakatCmpl-ExtraBold, a_PlakatCmpl;font-weight:800;}</style></defs><g id="Слой_2" data-name="Слой 2"><g id="Слой_2-2" data-name="Слой 2"><circle class="cls-1" cx="90.59" cy="90.59" r="90.59"/><path class="cls-2" d="M74.55,50.14,49.46,75.32a2.77,2.77,0,0,0,.46,3c1.27,1.18,3.37.55,3.37.55L75.64,56.71l22,22.8h34a4.13,4.13,0,0,0,2.09-.35,1.83,1.83,0,0,0,.38-2.75c-1.46-2-16.15-19.25-16.15-19.25H107.84v-7h-7.11v7.21H83.67l-6.48-7.21A1.62,1.62,0,0,0,74.55,50.14Z"/><rect class="cls-2" x="77.28" y="69.94" width="5.99" height="5.84"/><rect class="cls-2" x="68.27" y="69.94" width="5.99" height="5.84"/><rect class="cls-2" x="68.27" y="78.24" width="5.99" height="5.84"/><rect class="cls-2" x="77.28" y="78.24" width="5.99" height="5.84"/><text class="cls-3" transform="translate(21.67 124.21)">nano</text></g></g></svg>