<svg xmlns="http://www.w3.org/2000/svg" viewBox="0 0 297.3 188.52"><defs><style>.cls-1{fill:#354355;}.cls-2{font-size:111.02px;fill:#374556;font-family:a_PlakatCmpl-ExtraBold, a_PlakatCmpl;font-weight:800;}</style></defs><g id="Слой_2" data-name="Слой 2"><g id="Слой_2-2" data-name="Слой 2"><path class="cls-1" d="M113.74,1.46l-54,54.16s-1.77,3.92,1,6.47S68,63.27,68,63.27l48.07-47.68,47.29,49.05h73.19s2.84.25,4.49-.75c1.86-1.13,2.47-3.64.81-5.92-3.14-4.32-34.73-41.4-34.73-41.4H185.36V1.46H170.05V17H133.36L119.43,1.46C117.51-.53,115.61-.44,113.74,1.46Z"/><rect class="cls-1" x="119.62" y="44.04" width="12.88" height="12.56"/><rect class="cls-1" x="100.24" y="44.04" width="12.88" height="12.56"/><rect class="cls-1" x="100.24" y="61.89" width="12.88" height="12.56"/><rect class="cls-1" x="119.62" y="61.89" width="12.88" height="12.56"/><text class="cls-2" transform="translate(0 160.77)">nano</text></g></g></svg>